<svg width="322" height="277" viewBox="0 0 322 277" fill="none" xmlns="http://www.w3.org/2000/svg">
<rect x="176.441" y="149" width="95.3996" height="95.3996" rx="10" transform="rotate(25.7468 176.441 149)" fill="#255C75"/>
<path d="M51.6347 116.373C52.9924 114.735 54.8372 113.573 56.9008 113.055L88.6598 105.088C90.7128 104.573 92.8763 104.723 94.8388 105.515L125.401 117.862C127.347 118.649 128.997 120.027 130.116 121.803L147.76 149.805C148.879 151.581 149.41 153.664 149.28 155.759L147.226 188.657C147.094 190.77 146.296 192.786 144.945 194.416L124.051 219.625C122.693 221.263 120.848 222.426 118.784 222.943L87.0255 230.91C84.9725 231.425 82.809 231.276 80.8465 230.483L50.2843 218.136C48.338 217.35 46.6886 215.971 45.5696 214.195L27.9257 186.193C26.8067 184.417 26.2749 182.334 26.4057 180.239L28.4591 147.341C28.591 145.229 29.3897 143.212 30.7404 141.583L51.6347 116.373Z" fill="#FFC5AB"/>
<path d="M228.537 42.5265C234.59 37.7338 243.56 41.3162 244.645 48.9599L260.685 161.875C261.766 169.485 254.214 175.419 247.076 172.568L141.625 130.453C134.486 127.602 133.099 118.098 139.126 113.327L228.537 42.5265Z" fill="#AE7680"/>
</svg>
